<mxfile host="Electron" modified="2024-05-27T13:57:05.570Z" agent="Mozilla/5.0 (Windows NT 10.0; Win64; x64) AppleWebKit/537.36 (KHTML, like Gecko) draw.io/24.4.7 Chrome/124.0.6367.207 Electron/30.0.6 Safari/537.36" etag="JT2huBxGJoReYzlMK45C" version="24.4.7" type="device">
  <diagram name="Page-1" id="bWV-BgSpvrcg5UtvB8jp">
    <mxGraphModel dx="2516" dy="962" grid="1" gridSize="10" guides="1" tooltips="1" connect="1" arrows="1" fold="1" page="1" pageScale="1" pageWidth="850" pageHeight="1100" math="1" shadow="0">
      <root>
        <mxCell id="0" />
        <mxCell id="1" parent="0" />
        <mxCell id="dOa9_Km76gUvNsbYtdxb-10" style="edgeStyle=orthogonalEdgeStyle;rounded=0;orthogonalLoop=1;jettySize=auto;html=1;entryX=0.5;entryY=0;entryDx=0;entryDy=0;" parent="1" source="dOa9_Km76gUvNsbYtdxb-2" target="dOa9_Km76gUvNsbYtdxb-6" edge="1">
          <mxGeometry relative="1" as="geometry" />
        </mxCell>
        <mxCell id="dOa9_Km76gUvNsbYtdxb-13" value="[0 1 0]" style="edgeLabel;html=1;align=center;verticalAlign=middle;resizable=0;points=[];" parent="dOa9_Km76gUvNsbYtdxb-10" vertex="1" connectable="0">
          <mxGeometry y="-2" relative="1" as="geometry">
            <mxPoint as="offset" />
          </mxGeometry>
        </mxCell>
        <mxCell id="dOa9_Km76gUvNsbYtdxb-2" value="0 0 0&lt;div&gt;0 0 0&lt;/div&gt;&lt;div&gt;0 0 0&lt;/div&gt;" style="ellipse;whiteSpace=wrap;html=1;" parent="1" vertex="1">
          <mxGeometry x="380" y="260" width="80" height="60" as="geometry" />
        </mxCell>
        <mxCell id="dOa9_Km76gUvNsbYtdxb-5" value="1 0 0&lt;div&gt;0 0 0&lt;/div&gt;&lt;div&gt;0 0 0&lt;/div&gt;" style="ellipse;whiteSpace=wrap;html=1;" parent="1" vertex="1">
          <mxGeometry x="270" y="360" width="80" height="60" as="geometry" />
        </mxCell>
        <mxCell id="dOa9_Km76gUvNsbYtdxb-6" value="0 0 0&lt;div&gt;1 0 0&lt;/div&gt;&lt;div&gt;0 0 0&lt;/div&gt;" style="ellipse;whiteSpace=wrap;html=1;" parent="1" vertex="1">
          <mxGeometry x="380" y="360" width="80" height="60" as="geometry" />
        </mxCell>
        <mxCell id="dOa9_Km76gUvNsbYtdxb-7" value="0 0 0&lt;div&gt;0 0 0&lt;/div&gt;&lt;div&gt;1 0 0&lt;/div&gt;" style="ellipse;whiteSpace=wrap;html=1;" parent="1" vertex="1">
          <mxGeometry x="490" y="360" width="80" height="60" as="geometry" />
        </mxCell>
        <mxCell id="dOa9_Km76gUvNsbYtdxb-8" value="" style="endArrow=classic;html=1;rounded=0;exitX=0.5;exitY=1;exitDx=0;exitDy=0;entryX=0.5;entryY=0;entryDx=0;entryDy=0;" parent="1" source="dOa9_Km76gUvNsbYtdxb-2" target="dOa9_Km76gUvNsbYtdxb-5" edge="1">
          <mxGeometry width="50" height="50" relative="1" as="geometry">
            <mxPoint x="390" y="390" as="sourcePoint" />
            <mxPoint x="440" y="340" as="targetPoint" />
          </mxGeometry>
        </mxCell>
        <mxCell id="dOa9_Km76gUvNsbYtdxb-9" value="[1 0 0]" style="edgeLabel;html=1;align=center;verticalAlign=middle;resizable=0;points=[];" parent="dOa9_Km76gUvNsbYtdxb-8" vertex="1" connectable="0">
          <mxGeometry x="-0.0807" relative="1" as="geometry">
            <mxPoint as="offset" />
          </mxGeometry>
        </mxCell>
        <mxCell id="dOa9_Km76gUvNsbYtdxb-12" value="" style="endArrow=classic;html=1;rounded=0;exitX=0.5;exitY=1;exitDx=0;exitDy=0;entryX=0.5;entryY=0;entryDx=0;entryDy=0;" parent="1" source="dOa9_Km76gUvNsbYtdxb-2" target="dOa9_Km76gUvNsbYtdxb-7" edge="1">
          <mxGeometry width="50" height="50" relative="1" as="geometry">
            <mxPoint x="390" y="390" as="sourcePoint" />
            <mxPoint x="440" y="340" as="targetPoint" />
          </mxGeometry>
        </mxCell>
        <mxCell id="dOa9_Km76gUvNsbYtdxb-14" value="[0 0 1]" style="edgeLabel;html=1;align=center;verticalAlign=middle;resizable=0;points=[];" parent="dOa9_Km76gUvNsbYtdxb-12" vertex="1" connectable="0">
          <mxGeometry x="-0.1174" relative="1" as="geometry">
            <mxPoint x="12" y="1" as="offset" />
          </mxGeometry>
        </mxCell>
        <mxCell id="dOa9_Km76gUvNsbYtdxb-15" style="edgeStyle=orthogonalEdgeStyle;rounded=0;orthogonalLoop=1;jettySize=auto;html=1;entryX=0.5;entryY=0;entryDx=0;entryDy=0;" parent="1" target="dOa9_Km76gUvNsbYtdxb-18" edge="1">
          <mxGeometry relative="1" as="geometry">
            <mxPoint x="530" y="420" as="sourcePoint" />
          </mxGeometry>
        </mxCell>
        <mxCell id="dOa9_Km76gUvNsbYtdxb-16" value="[0 1 0]" style="edgeLabel;html=1;align=center;verticalAlign=middle;resizable=0;points=[];" parent="dOa9_Km76gUvNsbYtdxb-15" vertex="1" connectable="0">
          <mxGeometry y="-2" relative="1" as="geometry">
            <mxPoint as="offset" />
          </mxGeometry>
        </mxCell>
        <mxCell id="dOa9_Km76gUvNsbYtdxb-17" value="1 1 0&lt;div&gt;0 0 0&lt;/div&gt;&lt;div&gt;0 0 0&lt;/div&gt;" style="ellipse;whiteSpace=wrap;html=1;" parent="1" vertex="1">
          <mxGeometry x="380" y="460" width="80" height="60" as="geometry" />
        </mxCell>
        <mxCell id="dOa9_Km76gUvNsbYtdxb-18" value="1 0 0&lt;div&gt;0 1 0&lt;/div&gt;&lt;div&gt;0 0 0&lt;/div&gt;" style="ellipse;whiteSpace=wrap;html=1;" parent="1" vertex="1">
          <mxGeometry x="490" y="460" width="80" height="60" as="geometry" />
        </mxCell>
        <mxCell id="dOa9_Km76gUvNsbYtdxb-19" value="1 0 0&lt;div&gt;0 0 0&lt;/div&gt;&lt;div&gt;0 1 0&lt;/div&gt;" style="ellipse;whiteSpace=wrap;html=1;" parent="1" vertex="1">
          <mxGeometry x="600" y="460" width="80" height="60" as="geometry" />
        </mxCell>
        <mxCell id="dOa9_Km76gUvNsbYtdxb-20" value="" style="endArrow=classic;html=1;rounded=0;exitX=0.5;exitY=1;exitDx=0;exitDy=0;entryX=0.5;entryY=0;entryDx=0;entryDy=0;" parent="1" target="dOa9_Km76gUvNsbYtdxb-17" edge="1">
          <mxGeometry width="50" height="50" relative="1" as="geometry">
            <mxPoint x="530" y="420" as="sourcePoint" />
            <mxPoint x="550" y="440" as="targetPoint" />
          </mxGeometry>
        </mxCell>
        <mxCell id="dOa9_Km76gUvNsbYtdxb-21" value="[1 0 0]" style="edgeLabel;html=1;align=center;verticalAlign=middle;resizable=0;points=[];" parent="dOa9_Km76gUvNsbYtdxb-20" vertex="1" connectable="0">
          <mxGeometry x="-0.0807" relative="1" as="geometry">
            <mxPoint as="offset" />
          </mxGeometry>
        </mxCell>
        <mxCell id="dOa9_Km76gUvNsbYtdxb-22" value="" style="endArrow=classic;html=1;rounded=0;exitX=0.5;exitY=1;exitDx=0;exitDy=0;entryX=0.5;entryY=0;entryDx=0;entryDy=0;" parent="1" target="dOa9_Km76gUvNsbYtdxb-19" edge="1">
          <mxGeometry width="50" height="50" relative="1" as="geometry">
            <mxPoint x="530" y="420" as="sourcePoint" />
            <mxPoint x="550" y="440" as="targetPoint" />
          </mxGeometry>
        </mxCell>
        <mxCell id="dOa9_Km76gUvNsbYtdxb-23" value="[0 0 1]" style="edgeLabel;html=1;align=center;verticalAlign=middle;resizable=0;points=[];" parent="dOa9_Km76gUvNsbYtdxb-22" vertex="1" connectable="0">
          <mxGeometry x="-0.1174" relative="1" as="geometry">
            <mxPoint x="12" y="1" as="offset" />
          </mxGeometry>
        </mxCell>
        <mxCell id="dOa9_Km76gUvNsbYtdxb-24" value="S&lt;sub&gt;0&lt;/sub&gt;" style="ellipse;whiteSpace=wrap;html=1;aspect=fixed;" parent="1" vertex="1">
          <mxGeometry x="280" y="640" width="40" height="40" as="geometry" />
        </mxCell>
        <mxCell id="dOa9_Km76gUvNsbYtdxb-26" value="S&lt;span style=&quot;font-size: 10px;&quot;&gt;&lt;sub&gt;1&lt;/sub&gt;&lt;/span&gt;" style="ellipse;whiteSpace=wrap;html=1;aspect=fixed;" parent="1" vertex="1">
          <mxGeometry x="240" y="720" width="40" height="40" as="geometry" />
        </mxCell>
        <mxCell id="dOa9_Km76gUvNsbYtdxb-27" value="S&lt;span style=&quot;font-size: 8.33333px;&quot;&gt;&lt;sub&gt;2&lt;/sub&gt;&lt;/span&gt;" style="ellipse;whiteSpace=wrap;html=1;aspect=fixed;" parent="1" vertex="1">
          <mxGeometry x="320" y="720" width="40" height="40" as="geometry" />
        </mxCell>
        <mxCell id="dOa9_Km76gUvNsbYtdxb-28" value="" style="endArrow=classic;html=1;rounded=0;exitX=0.5;exitY=1;exitDx=0;exitDy=0;entryX=0.5;entryY=0;entryDx=0;entryDy=0;" parent="1" source="dOa9_Km76gUvNsbYtdxb-24" target="dOa9_Km76gUvNsbYtdxb-26" edge="1">
          <mxGeometry width="50" height="50" relative="1" as="geometry">
            <mxPoint x="470" y="810" as="sourcePoint" />
            <mxPoint x="520" y="760" as="targetPoint" />
          </mxGeometry>
        </mxCell>
        <mxCell id="dOa9_Km76gUvNsbYtdxb-30" value="" style="endArrow=classic;html=1;rounded=0;" parent="1" edge="1">
          <mxGeometry width="50" height="50" relative="1" as="geometry">
            <mxPoint x="300" y="680" as="sourcePoint" />
            <mxPoint x="340" y="720" as="targetPoint" />
          </mxGeometry>
        </mxCell>
        <mxCell id="dOa9_Km76gUvNsbYtdxb-31" value="S&lt;span style=&quot;font-size: 6.94444px;&quot;&gt;&lt;sub&gt;5&lt;/sub&gt;&lt;/span&gt;" style="ellipse;whiteSpace=wrap;html=1;aspect=fixed;fillColor=#f8cecc;strokeColor=#b85450;" parent="1" vertex="1">
          <mxGeometry x="360" y="800" width="40" height="40" as="geometry" />
        </mxCell>
        <mxCell id="dOa9_Km76gUvNsbYtdxb-35" style="edgeStyle=orthogonalEdgeStyle;rounded=0;orthogonalLoop=1;jettySize=auto;html=1;" parent="1" source="dOa9_Km76gUvNsbYtdxb-32" target="dOa9_Km76gUvNsbYtdxb-34" edge="1">
          <mxGeometry relative="1" as="geometry" />
        </mxCell>
        <mxCell id="dOa9_Km76gUvNsbYtdxb-32" value="S&lt;span style=&quot;font-size: 6.94444px;&quot;&gt;&lt;sub&gt;4&lt;/sub&gt;&lt;/span&gt;" style="ellipse;whiteSpace=wrap;html=1;aspect=fixed;" parent="1" vertex="1">
          <mxGeometry x="280" y="800" width="40" height="40" as="geometry" />
        </mxCell>
        <mxCell id="dOa9_Km76gUvNsbYtdxb-33" value="S&lt;span style=&quot;font-size: 6.94444px;&quot;&gt;&lt;sub&gt;3&lt;/sub&gt;&lt;/span&gt;" style="ellipse;whiteSpace=wrap;html=1;aspect=fixed;fillColor=#f8cecc;strokeColor=#b85450;" parent="1" vertex="1">
          <mxGeometry x="200" y="800" width="40" height="40" as="geometry" />
        </mxCell>
        <mxCell id="dOa9_Km76gUvNsbYtdxb-34" value="S&lt;span style=&quot;font-size: 6.94444px;&quot;&gt;&lt;sub&gt;4&lt;/sub&gt;&lt;/span&gt;" style="ellipse;whiteSpace=wrap;html=1;aspect=fixed;fillColor=#d5e8d4;strokeColor=#82b366;" parent="1" vertex="1">
          <mxGeometry x="280" y="880" width="40" height="40" as="geometry" />
        </mxCell>
        <mxCell id="dOa9_Km76gUvNsbYtdxb-36" value="" style="endArrow=classic;html=1;rounded=0;exitX=0.5;exitY=1;exitDx=0;exitDy=0;entryX=0.5;entryY=0;entryDx=0;entryDy=0;" parent="1" edge="1">
          <mxGeometry width="50" height="50" relative="1" as="geometry">
            <mxPoint x="260" y="760" as="sourcePoint" />
            <mxPoint x="220" y="800" as="targetPoint" />
          </mxGeometry>
        </mxCell>
        <mxCell id="dOa9_Km76gUvNsbYtdxb-38" value="" style="endArrow=classic;html=1;rounded=0;" parent="1" edge="1">
          <mxGeometry width="50" height="50" relative="1" as="geometry">
            <mxPoint x="260" y="760" as="sourcePoint" />
            <mxPoint x="300" y="800" as="targetPoint" />
          </mxGeometry>
        </mxCell>
        <mxCell id="dOa9_Km76gUvNsbYtdxb-39" value="" style="endArrow=classic;html=1;rounded=0;" parent="1" edge="1">
          <mxGeometry width="50" height="50" relative="1" as="geometry">
            <mxPoint x="340" y="760" as="sourcePoint" />
            <mxPoint x="380" y="800" as="targetPoint" />
          </mxGeometry>
        </mxCell>
        <mxCell id="dOa9_Km76gUvNsbYtdxb-40" value="" style="rounded=0;whiteSpace=wrap;html=1;" parent="1" vertex="1">
          <mxGeometry x="425" y="610" width="135" height="130" as="geometry" />
        </mxCell>
        <mxCell id="dOa9_Km76gUvNsbYtdxb-41" value="&lt;font style=&quot;font-size: 11px;&quot;&gt;&lt;b&gt;n &lt;/b&gt;= visit_count&lt;/font&gt;" style="text;html=1;align=center;verticalAlign=middle;whiteSpace=wrap;rounded=0;" parent="1" vertex="1">
          <mxGeometry x="420" y="610" width="100" height="30" as="geometry" />
        </mxCell>
        <mxCell id="dOa9_Km76gUvNsbYtdxb-43" value="&lt;font style=&quot;font-size: 11px;&quot;&gt;&lt;b&gt;v&amp;nbsp;&lt;/b&gt;= total_value&lt;/font&gt;" style="text;html=1;align=center;verticalAlign=middle;whiteSpace=wrap;rounded=0;" parent="1" vertex="1">
          <mxGeometry x="420" y="630" width="100" height="30" as="geometry" />
        </mxCell>
        <mxCell id="dOa9_Km76gUvNsbYtdxb-45" value="" style="ellipse;whiteSpace=wrap;html=1;aspect=fixed;fillColor=#d5e8d4;strokeColor=#82b366;" parent="1" vertex="1">
          <mxGeometry x="430" y="685" width="20" height="20" as="geometry" />
        </mxCell>
        <mxCell id="dOa9_Km76gUvNsbYtdxb-46" value="&lt;font style=&quot;font-size: 11px;&quot;&gt;- terminal success&lt;/font&gt;" style="text;html=1;align=center;verticalAlign=middle;resizable=0;points=[];autosize=1;strokeColor=none;fillColor=none;" parent="1" vertex="1">
          <mxGeometry x="450" y="680" width="110" height="30" as="geometry" />
        </mxCell>
        <mxCell id="dOa9_Km76gUvNsbYtdxb-47" value="" style="ellipse;whiteSpace=wrap;html=1;aspect=fixed;fillColor=#f8cecc;strokeColor=#b85450;" parent="1" vertex="1">
          <mxGeometry x="430" y="710" width="20" height="20" as="geometry" />
        </mxCell>
        <mxCell id="dOa9_Km76gUvNsbYtdxb-48" value="&lt;font style=&quot;font-size: 11px;&quot;&gt;- terminal failure&lt;/font&gt;" style="text;html=1;align=center;verticalAlign=middle;resizable=0;points=[];autosize=1;strokeColor=none;fillColor=none;" parent="1" vertex="1">
          <mxGeometry x="450" y="705" width="100" height="30" as="geometry" />
        </mxCell>
        <mxCell id="dOa9_Km76gUvNsbYtdxb-49" value="&lt;font style=&quot;font-size: 10px;&quot;&gt;n = 2&lt;/font&gt;&lt;div style=&quot;font-size: 10px;&quot;&gt;&lt;font style=&quot;font-size: 10px;&quot;&gt;v = -1 + 4d&lt;/font&gt;&lt;/div&gt;" style="text;html=1;align=center;verticalAlign=middle;resizable=0;points=[];autosize=1;strokeColor=none;fillColor=none;" parent="1" vertex="1">
          <mxGeometry x="310" y="620" width="70" height="40" as="geometry" />
        </mxCell>
        <mxCell id="dOa9_Km76gUvNsbYtdxb-50" value="&lt;font style=&quot;font-size: 10px;&quot;&gt;n = 1&lt;/font&gt;&lt;div style=&quot;font-size: 10px;&quot;&gt;&lt;font style=&quot;font-size: 10px;&quot;&gt;v = 1&lt;/font&gt;&lt;/div&gt;" style="text;html=1;align=center;verticalAlign=middle;resizable=0;points=[];autosize=1;strokeColor=none;fillColor=none;" parent="1" vertex="1">
          <mxGeometry x="305" y="860" width="50" height="40" as="geometry" />
        </mxCell>
        <mxCell id="dOa9_Km76gUvNsbYtdxb-51" value="&lt;font style=&quot;font-size: 10px;&quot;&gt;n = 1&lt;/font&gt;&lt;div style=&quot;font-size: 10px;&quot;&gt;&lt;font style=&quot;font-size: 10px;&quot;&gt;v = -1&lt;/font&gt;&lt;/div&gt;" style="text;html=1;align=center;verticalAlign=middle;resizable=0;points=[];autosize=1;strokeColor=none;fillColor=none;" parent="1" vertex="1">
          <mxGeometry x="390" y="780" width="50" height="40" as="geometry" />
        </mxCell>
        <mxCell id="dOa9_Km76gUvNsbYtdxb-52" value="&lt;font style=&quot;font-size: 10px;&quot;&gt;n = 1&lt;/font&gt;&lt;div style=&quot;font-size: 10px;&quot;&gt;&lt;font style=&quot;font-size: 10px;&quot;&gt;v = -1&lt;/font&gt;&lt;/div&gt;" style="text;html=1;align=center;verticalAlign=middle;resizable=0;points=[];autosize=1;strokeColor=none;fillColor=none;" parent="1" vertex="1">
          <mxGeometry x="160" y="780" width="50" height="40" as="geometry" />
        </mxCell>
        <mxCell id="dOa9_Km76gUvNsbYtdxb-53" value="&lt;font style=&quot;font-size: 10px;&quot;&gt;n = 1&lt;/font&gt;&lt;div style=&quot;font-size: 10px;&quot;&gt;&lt;font style=&quot;font-size: 10px;&quot;&gt;v = 1 + d&lt;/font&gt;&lt;/div&gt;" style="text;html=1;align=center;verticalAlign=middle;resizable=0;points=[];autosize=1;strokeColor=none;fillColor=none;" parent="1" vertex="1">
          <mxGeometry x="295" y="770" width="60" height="40" as="geometry" />
        </mxCell>
        <mxCell id="dOa9_Km76gUvNsbYtdxb-54" value="&lt;font style=&quot;font-size: 11px;&quot;&gt;&lt;b&gt;d&amp;nbsp;&lt;/b&gt;= depth coeff&lt;/font&gt;" style="text;html=1;align=center;verticalAlign=middle;whiteSpace=wrap;rounded=0;" parent="1" vertex="1">
          <mxGeometry x="420" y="650" width="100" height="30" as="geometry" />
        </mxCell>
        <mxCell id="dOa9_Km76gUvNsbYtdxb-55" value="&lt;font style=&quot;font-size: 10px;&quot;&gt;n = 1&lt;/font&gt;&lt;div style=&quot;font-size: 10px;&quot;&gt;&lt;font style=&quot;font-size: 10px;&quot;&gt;v = -1 + d&lt;/font&gt;&lt;/div&gt;" style="text;html=1;align=center;verticalAlign=middle;resizable=0;points=[];autosize=1;strokeColor=none;fillColor=none;" parent="1" vertex="1">
          <mxGeometry x="340" y="690" width="70" height="40" as="geometry" />
        </mxCell>
        <mxCell id="dOa9_Km76gUvNsbYtdxb-56" value="&lt;font style=&quot;font-size: 10px;&quot;&gt;n = 2&lt;/font&gt;&lt;div style=&quot;font-size: 10px;&quot;&gt;&lt;font style=&quot;font-size: 10px;&quot;&gt;v = 3d&lt;/font&gt;&lt;/div&gt;" style="text;html=1;align=center;verticalAlign=middle;resizable=0;points=[];autosize=1;strokeColor=none;fillColor=none;" parent="1" vertex="1">
          <mxGeometry x="200" y="690" width="50" height="40" as="geometry" />
        </mxCell>
        <mxCell id="7ldgItV9ENmPA7PiBygW-2" value="$$S_0$$" style="ellipse;whiteSpace=wrap;html=1;aspect=fixed;" vertex="1" parent="1">
          <mxGeometry x="1000" y="638" width="40" height="40" as="geometry" />
        </mxCell>
        <mxCell id="7ldgItV9ENmPA7PiBygW-3" value="$$S_1$$" style="ellipse;whiteSpace=wrap;html=1;aspect=fixed;" vertex="1" parent="1">
          <mxGeometry x="940" y="720" width="40" height="40" as="geometry" />
        </mxCell>
        <mxCell id="7ldgItV9ENmPA7PiBygW-4" value="$$S_2$$" style="ellipse;whiteSpace=wrap;html=1;aspect=fixed;" vertex="1" parent="1">
          <mxGeometry x="1060" y="720" width="40" height="40" as="geometry" />
        </mxCell>
        <mxCell id="7ldgItV9ENmPA7PiBygW-5" value="" style="endArrow=classic;html=1;rounded=0;exitX=0.5;exitY=1;exitDx=0;exitDy=0;entryX=0.5;entryY=0;entryDx=0;entryDy=0;" edge="1" source="7ldgItV9ENmPA7PiBygW-2" target="7ldgItV9ENmPA7PiBygW-3" parent="1">
          <mxGeometry width="50" height="50" relative="1" as="geometry">
            <mxPoint x="1220" y="800" as="sourcePoint" />
            <mxPoint x="1270" y="750" as="targetPoint" />
          </mxGeometry>
        </mxCell>
        <mxCell id="7ldgItV9ENmPA7PiBygW-40" value="$$a_1$$" style="edgeLabel;html=1;align=center;verticalAlign=middle;resizable=0;points=[];" vertex="1" connectable="0" parent="7ldgItV9ENmPA7PiBygW-5">
          <mxGeometry x="-0.193" y="-1" relative="1" as="geometry">
            <mxPoint as="offset" />
          </mxGeometry>
        </mxCell>
        <mxCell id="7ldgItV9ENmPA7PiBygW-6" value="" style="endArrow=classic;html=1;rounded=0;exitX=0.5;exitY=1;exitDx=0;exitDy=0;entryX=0.5;entryY=0;entryDx=0;entryDy=0;" edge="1" parent="1" source="7ldgItV9ENmPA7PiBygW-2" target="7ldgItV9ENmPA7PiBygW-4">
          <mxGeometry width="50" height="50" relative="1" as="geometry">
            <mxPoint x="1050" y="670" as="sourcePoint" />
            <mxPoint x="1090" y="710" as="targetPoint" />
          </mxGeometry>
        </mxCell>
        <mxCell id="7ldgItV9ENmPA7PiBygW-39" value="$$a_2$$" style="edgeLabel;html=1;align=center;verticalAlign=middle;resizable=0;points=[];" vertex="1" connectable="0" parent="7ldgItV9ENmPA7PiBygW-6">
          <mxGeometry x="-0.0848" y="-1" relative="1" as="geometry">
            <mxPoint as="offset" />
          </mxGeometry>
        </mxCell>
        <mxCell id="7ldgItV9ENmPA7PiBygW-9" value="$$S_4$$" style="ellipse;whiteSpace=wrap;html=1;aspect=fixed;" vertex="1" parent="1">
          <mxGeometry x="1000" y="800" width="40" height="40" as="geometry" />
        </mxCell>
        <mxCell id="7ldgItV9ENmPA7PiBygW-10" value="$$S_3$$" style="ellipse;whiteSpace=wrap;html=1;aspect=fixed;" vertex="1" parent="1">
          <mxGeometry x="880" y="800" width="40" height="40" as="geometry" />
        </mxCell>
        <mxCell id="7ldgItV9ENmPA7PiBygW-32" value="$$A_{s_0} = \{a_1, a_2, a_3\}$$" style="text;html=1;align=left;verticalAlign=middle;resizable=0;points=[];autosize=1;strokeColor=none;fillColor=none;" vertex="1" parent="1">
          <mxGeometry x="1040" y="625" width="190" height="30" as="geometry" />
        </mxCell>
        <mxCell id="7ldgItV9ENmPA7PiBygW-33" value="" style="endArrow=classic;html=1;rounded=0;exitX=0.5;exitY=1;exitDx=0;exitDy=0;entryX=0.5;entryY=0;entryDx=0;entryDy=0;" edge="1" parent="1" source="7ldgItV9ENmPA7PiBygW-3" target="7ldgItV9ENmPA7PiBygW-10">
          <mxGeometry width="50" height="50" relative="1" as="geometry">
            <mxPoint x="1030" y="688" as="sourcePoint" />
            <mxPoint x="970" y="730" as="targetPoint" />
          </mxGeometry>
        </mxCell>
        <mxCell id="7ldgItV9ENmPA7PiBygW-41" value="$$a_1$$" style="edgeLabel;html=1;align=center;verticalAlign=middle;resizable=0;points=[];" vertex="1" connectable="0" parent="7ldgItV9ENmPA7PiBygW-33">
          <mxGeometry x="-0.0346" y="1" relative="1" as="geometry">
            <mxPoint as="offset" />
          </mxGeometry>
        </mxCell>
        <mxCell id="7ldgItV9ENmPA7PiBygW-34" value="" style="endArrow=classic;html=1;rounded=0;exitX=0.5;exitY=1;exitDx=0;exitDy=0;entryX=0.5;entryY=0;entryDx=0;entryDy=0;" edge="1" parent="1" source="7ldgItV9ENmPA7PiBygW-3" target="7ldgItV9ENmPA7PiBygW-9">
          <mxGeometry width="50" height="50" relative="1" as="geometry">
            <mxPoint x="1030" y="688" as="sourcePoint" />
            <mxPoint x="1090" y="730" as="targetPoint" />
          </mxGeometry>
        </mxCell>
        <mxCell id="7ldgItV9ENmPA7PiBygW-42" value="$$a_2$$" style="edgeLabel;html=1;align=center;verticalAlign=middle;resizable=0;points=[];" vertex="1" connectable="0" parent="7ldgItV9ENmPA7PiBygW-34">
          <mxGeometry x="-0.0538" relative="1" as="geometry">
            <mxPoint as="offset" />
          </mxGeometry>
        </mxCell>
        <mxCell id="7ldgItV9ENmPA7PiBygW-35" value="$$A_{s_0} = \{a_3\}$$" style="text;html=1;align=left;verticalAlign=middle;resizable=0;points=[];autosize=1;strokeColor=none;fillColor=none;" vertex="1" parent="1">
          <mxGeometry x="1090" y="705" width="140" height="30" as="geometry" />
        </mxCell>
        <mxCell id="7ldgItV9ENmPA7PiBygW-36" value="$$A_{s_0}=\{a_1, a_2\}$$" style="text;html=1;align=left;verticalAlign=middle;resizable=0;points=[];autosize=1;strokeColor=none;fillColor=none;" vertex="1" parent="1">
          <mxGeometry x="970" y="705" width="160" height="30" as="geometry" />
        </mxCell>
        <mxCell id="7ldgItV9ENmPA7PiBygW-37" value="$$A_{s_3} = \{a_1\}$$" style="text;html=1;align=left;verticalAlign=middle;resizable=0;points=[];autosize=1;strokeColor=none;fillColor=none;" vertex="1" parent="1">
          <mxGeometry x="910" y="785" width="140" height="30" as="geometry" />
        </mxCell>
        <mxCell id="7ldgItV9ENmPA7PiBygW-38" value="$$A_{s_4} = \emptyset$$" style="text;html=1;align=left;verticalAlign=middle;resizable=0;points=[];autosize=1;strokeColor=none;fillColor=none;" vertex="1" parent="1">
          <mxGeometry x="1030" y="785" width="160" height="30" as="geometry" />
        </mxCell>
        <mxCell id="7ldgItV9ENmPA7PiBygW-43" value="$$\frac{v = 4}{n = 7}$$" style="ellipse;whiteSpace=wrap;html=1;aspect=fixed;strokeColor=#D95F02;" vertex="1" parent="1">
          <mxGeometry x="230" y="1040" width="60" height="60" as="geometry" />
        </mxCell>
        <mxCell id="7ldgItV9ENmPA7PiBygW-46" value="" style="endArrow=classic;html=1;rounded=0;exitX=0.5;exitY=1;exitDx=0;exitDy=0;entryX=0.5;entryY=0;entryDx=0;entryDy=0;" edge="1" source="7ldgItV9ENmPA7PiBygW-43" target="7ldgItV9ENmPA7PiBygW-74" parent="1">
          <mxGeometry width="50" height="50" relative="1" as="geometry">
            <mxPoint x="430" y="1230" as="sourcePoint" />
            <mxPoint x="220" y="1140" as="targetPoint" />
          </mxGeometry>
        </mxCell>
        <mxCell id="7ldgItV9ENmPA7PiBygW-47" value="" style="endArrow=classic;html=1;rounded=0;exitX=0.5;exitY=1;exitDx=0;exitDy=0;entryX=0.5;entryY=0;entryDx=0;entryDy=0;strokeColor=#d95f02;" edge="1" parent="1" source="7ldgItV9ENmPA7PiBygW-43" target="7ldgItV9ENmPA7PiBygW-75">
          <mxGeometry width="50" height="50" relative="1" as="geometry">
            <mxPoint x="300" y="1100" as="sourcePoint" />
            <mxPoint x="300" y="1140" as="targetPoint" />
          </mxGeometry>
        </mxCell>
        <mxCell id="7ldgItV9ENmPA7PiBygW-56" value="" style="rounded=0;whiteSpace=wrap;html=1;" vertex="1" parent="1">
          <mxGeometry x="15" y="1002" width="145" height="58" as="geometry" />
        </mxCell>
        <mxCell id="7ldgItV9ENmPA7PiBygW-57" value="&lt;font style=&quot;font-size: 15px;&quot;&gt;&lt;b style=&quot;font-size: 15px;&quot;&gt;$$n$$&lt;/b&gt;&lt;/font&gt;" style="text;html=1;align=center;verticalAlign=middle;whiteSpace=wrap;rounded=0;fontSize=15;" vertex="1" parent="1">
          <mxGeometry x="-20" y="1024" width="100" height="30" as="geometry" />
        </mxCell>
        <mxCell id="7ldgItV9ENmPA7PiBygW-58" value="&lt;font style=&quot;font-size: 15px;&quot;&gt;&lt;b style=&quot;font-size: 15px;&quot;&gt;$$v$$&lt;/b&gt;&lt;/font&gt;" style="text;html=1;align=center;verticalAlign=middle;whiteSpace=wrap;rounded=0;fontSize=15;" vertex="1" parent="1">
          <mxGeometry x="-20" y="1002" width="100" height="30" as="geometry" />
        </mxCell>
        <mxCell id="7ldgItV9ENmPA7PiBygW-72" value="= visit count" style="text;html=1;align=center;verticalAlign=middle;resizable=0;points=[];autosize=1;strokeColor=none;fillColor=none;fontSize=15;" vertex="1" parent="1">
          <mxGeometry x="27.5" y="1024" width="100" height="30" as="geometry" />
        </mxCell>
        <mxCell id="7ldgItV9ENmPA7PiBygW-73" value="= total value" style="text;html=1;align=center;verticalAlign=middle;resizable=0;points=[];autosize=1;strokeColor=none;fillColor=none;fontSize=15;" vertex="1" parent="1">
          <mxGeometry x="27.5" y="1002" width="100" height="30" as="geometry" />
        </mxCell>
        <mxCell id="7ldgItV9ENmPA7PiBygW-74" value="$$\frac{1}{3}$$" style="ellipse;whiteSpace=wrap;html=1;aspect=fixed;" vertex="1" parent="1">
          <mxGeometry x="130" y="1120" width="50" height="50" as="geometry" />
        </mxCell>
        <mxCell id="7ldgItV9ENmPA7PiBygW-75" value="$$\frac{3}{4}$$" style="ellipse;whiteSpace=wrap;html=1;aspect=fixed;strokeColor=#d95f02;" vertex="1" parent="1">
          <mxGeometry x="340" y="1120" width="50" height="50" as="geometry" />
        </mxCell>
        <mxCell id="7ldgItV9ENmPA7PiBygW-76" value="$$\frac{0}{1}$$" style="ellipse;whiteSpace=wrap;html=1;aspect=fixed;" vertex="1" parent="1">
          <mxGeometry x="80" y="1190" width="50" height="50" as="geometry" />
        </mxCell>
        <mxCell id="7ldgItV9ENmPA7PiBygW-77" value="$$\frac{1}{1}$$" style="ellipse;whiteSpace=wrap;html=1;aspect=fixed;" vertex="1" parent="1">
          <mxGeometry x="180" y="1190" width="50" height="50" as="geometry" />
        </mxCell>
        <mxCell id="7ldgItV9ENmPA7PiBygW-78" value="$$\frac{2}{2}$$" style="ellipse;whiteSpace=wrap;html=1;aspect=fixed;strokeColor=#d95f02;" vertex="1" parent="1">
          <mxGeometry x="340" y="1190" width="50" height="50" as="geometry" />
        </mxCell>
        <mxCell id="7ldgItV9ENmPA7PiBygW-79" value="$$\frac{1}{1}$$" style="ellipse;whiteSpace=wrap;html=1;aspect=fixed;" vertex="1" parent="1">
          <mxGeometry x="260" y="1190" width="50" height="50" as="geometry" />
        </mxCell>
        <mxCell id="7ldgItV9ENmPA7PiBygW-80" value="$$\frac{0}{1}$$" style="ellipse;whiteSpace=wrap;html=1;aspect=fixed;" vertex="1" parent="1">
          <mxGeometry x="420" y="1190" width="50" height="50" as="geometry" />
        </mxCell>
        <mxCell id="7ldgItV9ENmPA7PiBygW-81" value="" style="endArrow=classic;html=1;rounded=0;exitX=0.5;exitY=1;exitDx=0;exitDy=0;entryX=0.5;entryY=0;entryDx=0;entryDy=0;" edge="1" parent="1" source="7ldgItV9ENmPA7PiBygW-74" target="7ldgItV9ENmPA7PiBygW-76">
          <mxGeometry width="50" height="50" relative="1" as="geometry">
            <mxPoint x="290" y="1090" as="sourcePoint" />
            <mxPoint x="165" y="1130" as="targetPoint" />
          </mxGeometry>
        </mxCell>
        <mxCell id="7ldgItV9ENmPA7PiBygW-82" value="" style="endArrow=classic;html=1;rounded=0;exitX=0.5;exitY=1;exitDx=0;exitDy=0;entryX=0.5;entryY=0;entryDx=0;entryDy=0;" edge="1" parent="1" source="7ldgItV9ENmPA7PiBygW-74" target="7ldgItV9ENmPA7PiBygW-77">
          <mxGeometry width="50" height="50" relative="1" as="geometry">
            <mxPoint x="165" y="1180" as="sourcePoint" />
            <mxPoint x="115" y="1220" as="targetPoint" />
          </mxGeometry>
        </mxCell>
        <mxCell id="7ldgItV9ENmPA7PiBygW-83" value="" style="endArrow=classic;html=1;rounded=0;exitX=0.5;exitY=1;exitDx=0;exitDy=0;entryX=0.5;entryY=0;entryDx=0;entryDy=0;" edge="1" parent="1" source="7ldgItV9ENmPA7PiBygW-75" target="7ldgItV9ENmPA7PiBygW-79">
          <mxGeometry width="50" height="50" relative="1" as="geometry">
            <mxPoint x="125" y="1180" as="sourcePoint" />
            <mxPoint x="175" y="1220" as="targetPoint" />
          </mxGeometry>
        </mxCell>
        <mxCell id="7ldgItV9ENmPA7PiBygW-84" value="" style="endArrow=classic;html=1;rounded=0;exitX=0.5;exitY=1;exitDx=0;exitDy=0;entryX=0.5;entryY=0;entryDx=0;entryDy=0;strokeColor=#d95f02;" edge="1" parent="1" source="7ldgItV9ENmPA7PiBygW-75" target="7ldgItV9ENmPA7PiBygW-78">
          <mxGeometry width="50" height="50" relative="1" as="geometry">
            <mxPoint x="375" y="1180" as="sourcePoint" />
            <mxPoint x="295" y="1220" as="targetPoint" />
          </mxGeometry>
        </mxCell>
        <mxCell id="7ldgItV9ENmPA7PiBygW-85" value="" style="endArrow=classic;html=1;rounded=0;exitX=0.5;exitY=1;exitDx=0;exitDy=0;entryX=0.5;entryY=0;entryDx=0;entryDy=0;" edge="1" parent="1" source="7ldgItV9ENmPA7PiBygW-75" target="7ldgItV9ENmPA7PiBygW-80">
          <mxGeometry width="50" height="50" relative="1" as="geometry">
            <mxPoint x="375" y="1180" as="sourcePoint" />
            <mxPoint x="375" y="1220" as="targetPoint" />
          </mxGeometry>
        </mxCell>
        <mxCell id="7ldgItV9ENmPA7PiBygW-86" value="$$\frac{1}{1}$$" style="ellipse;whiteSpace=wrap;html=1;aspect=fixed;" vertex="1" parent="1">
          <mxGeometry x="390" y="1260" width="50" height="50" as="geometry" />
        </mxCell>
        <mxCell id="7ldgItV9ENmPA7PiBygW-87" value="$$\frac{1}{1}$$" style="ellipse;whiteSpace=wrap;html=1;aspect=fixed;strokeColor=#d95f02;" vertex="1" parent="1">
          <mxGeometry x="290" y="1260" width="50" height="50" as="geometry" />
        </mxCell>
        <mxCell id="7ldgItV9ENmPA7PiBygW-88" value="" style="endArrow=classic;html=1;rounded=0;exitX=0.5;exitY=1;exitDx=0;exitDy=0;entryX=0.5;entryY=0;entryDx=0;entryDy=0;strokeColor=#d95f02;" edge="1" parent="1" source="7ldgItV9ENmPA7PiBygW-78" target="7ldgItV9ENmPA7PiBygW-87">
          <mxGeometry width="50" height="50" relative="1" as="geometry">
            <mxPoint x="375" y="1160" as="sourcePoint" />
            <mxPoint x="375" y="1200" as="targetPoint" />
          </mxGeometry>
        </mxCell>
        <mxCell id="7ldgItV9ENmPA7PiBygW-89" value="" style="endArrow=classic;html=1;rounded=0;exitX=0.5;exitY=1;exitDx=0;exitDy=0;entryX=0.5;entryY=0;entryDx=0;entryDy=0;" edge="1" parent="1" source="7ldgItV9ENmPA7PiBygW-78" target="7ldgItV9ENmPA7PiBygW-86">
          <mxGeometry width="50" height="50" relative="1" as="geometry">
            <mxPoint x="375" y="1250" as="sourcePoint" />
            <mxPoint x="315" y="1290" as="targetPoint" />
          </mxGeometry>
        </mxCell>
        <mxCell id="7ldgItV9ENmPA7PiBygW-90" value="&lt;font size=&quot;1&quot; style=&quot;&quot;&gt;&lt;i style=&quot;font-size: 15px;&quot;&gt;&lt;b&gt;I Selection&lt;/b&gt;&lt;/i&gt;&lt;/font&gt;" style="text;html=1;align=center;verticalAlign=middle;resizable=0;points=[];autosize=1;strokeColor=none;fillColor=none;" vertex="1" parent="1">
          <mxGeometry x="210" y="1000" width="100" height="30" as="geometry" />
        </mxCell>
        <mxCell id="7ldgItV9ENmPA7PiBygW-91" value="$$\frac{v = 4}{n = 7}$$" style="ellipse;whiteSpace=wrap;html=1;aspect=fixed;" vertex="1" parent="1">
          <mxGeometry x="640" y="1040" width="60" height="60" as="geometry" />
        </mxCell>
        <mxCell id="7ldgItV9ENmPA7PiBygW-92" value="" style="endArrow=classic;html=1;rounded=0;exitX=0.5;exitY=1;exitDx=0;exitDy=0;entryX=0.5;entryY=0;entryDx=0;entryDy=0;" edge="1" source="7ldgItV9ENmPA7PiBygW-91" target="7ldgItV9ENmPA7PiBygW-94" parent="1">
          <mxGeometry width="50" height="50" relative="1" as="geometry">
            <mxPoint x="840" y="1230" as="sourcePoint" />
            <mxPoint x="630" y="1140" as="targetPoint" />
          </mxGeometry>
        </mxCell>
        <mxCell id="7ldgItV9ENmPA7PiBygW-93" value="" style="endArrow=classic;html=1;rounded=0;exitX=0.5;exitY=1;exitDx=0;exitDy=0;entryX=0.5;entryY=0;entryDx=0;entryDy=0;strokeColor=#000000;" edge="1" source="7ldgItV9ENmPA7PiBygW-91" target="7ldgItV9ENmPA7PiBygW-95" parent="1">
          <mxGeometry width="50" height="50" relative="1" as="geometry">
            <mxPoint x="710" y="1100" as="sourcePoint" />
            <mxPoint x="710" y="1140" as="targetPoint" />
          </mxGeometry>
        </mxCell>
        <mxCell id="7ldgItV9ENmPA7PiBygW-94" value="$$\frac{1}{3}$$" style="ellipse;whiteSpace=wrap;html=1;aspect=fixed;" vertex="1" parent="1">
          <mxGeometry x="540" y="1120" width="50" height="50" as="geometry" />
        </mxCell>
        <mxCell id="7ldgItV9ENmPA7PiBygW-95" value="$$\frac{3}{4}$$" style="ellipse;whiteSpace=wrap;html=1;aspect=fixed;strokeColor=#000000;" vertex="1" parent="1">
          <mxGeometry x="750" y="1120" width="50" height="50" as="geometry" />
        </mxCell>
        <mxCell id="7ldgItV9ENmPA7PiBygW-96" value="$$\frac{0}{1}$$" style="ellipse;whiteSpace=wrap;html=1;aspect=fixed;" vertex="1" parent="1">
          <mxGeometry x="490" y="1190" width="50" height="50" as="geometry" />
        </mxCell>
        <mxCell id="7ldgItV9ENmPA7PiBygW-97" value="$$\frac{1}{1}$$" style="ellipse;whiteSpace=wrap;html=1;aspect=fixed;" vertex="1" parent="1">
          <mxGeometry x="590" y="1190" width="50" height="50" as="geometry" />
        </mxCell>
        <mxCell id="7ldgItV9ENmPA7PiBygW-98" value="$$\frac{2}{2}$$" style="ellipse;whiteSpace=wrap;html=1;aspect=fixed;strokeColor=#000000;" vertex="1" parent="1">
          <mxGeometry x="750" y="1190" width="50" height="50" as="geometry" />
        </mxCell>
        <mxCell id="7ldgItV9ENmPA7PiBygW-99" value="$$\frac{1}{1}$$" style="ellipse;whiteSpace=wrap;html=1;aspect=fixed;" vertex="1" parent="1">
          <mxGeometry x="670" y="1190" width="50" height="50" as="geometry" />
        </mxCell>
        <mxCell id="7ldgItV9ENmPA7PiBygW-100" value="$$\frac{0}{1}$$" style="ellipse;whiteSpace=wrap;html=1;aspect=fixed;" vertex="1" parent="1">
          <mxGeometry x="830" y="1190" width="50" height="50" as="geometry" />
        </mxCell>
        <mxCell id="7ldgItV9ENmPA7PiBygW-101" value="" style="endArrow=classic;html=1;rounded=0;exitX=0.5;exitY=1;exitDx=0;exitDy=0;entryX=0.5;entryY=0;entryDx=0;entryDy=0;" edge="1" source="7ldgItV9ENmPA7PiBygW-94" target="7ldgItV9ENmPA7PiBygW-96" parent="1">
          <mxGeometry width="50" height="50" relative="1" as="geometry">
            <mxPoint x="700" y="1090" as="sourcePoint" />
            <mxPoint x="575" y="1130" as="targetPoint" />
          </mxGeometry>
        </mxCell>
        <mxCell id="7ldgItV9ENmPA7PiBygW-102" value="" style="endArrow=classic;html=1;rounded=0;exitX=0.5;exitY=1;exitDx=0;exitDy=0;entryX=0.5;entryY=0;entryDx=0;entryDy=0;" edge="1" source="7ldgItV9ENmPA7PiBygW-94" target="7ldgItV9ENmPA7PiBygW-97" parent="1">
          <mxGeometry width="50" height="50" relative="1" as="geometry">
            <mxPoint x="575" y="1180" as="sourcePoint" />
            <mxPoint x="525" y="1220" as="targetPoint" />
          </mxGeometry>
        </mxCell>
        <mxCell id="7ldgItV9ENmPA7PiBygW-103" value="" style="endArrow=classic;html=1;rounded=0;exitX=0.5;exitY=1;exitDx=0;exitDy=0;entryX=0.5;entryY=0;entryDx=0;entryDy=0;" edge="1" source="7ldgItV9ENmPA7PiBygW-95" target="7ldgItV9ENmPA7PiBygW-99" parent="1">
          <mxGeometry width="50" height="50" relative="1" as="geometry">
            <mxPoint x="535" y="1180" as="sourcePoint" />
            <mxPoint x="585" y="1220" as="targetPoint" />
          </mxGeometry>
        </mxCell>
        <mxCell id="7ldgItV9ENmPA7PiBygW-104" value="" style="endArrow=classic;html=1;rounded=0;exitX=0.5;exitY=1;exitDx=0;exitDy=0;entryX=0.5;entryY=0;entryDx=0;entryDy=0;strokeColor=#000000;" edge="1" source="7ldgItV9ENmPA7PiBygW-95" target="7ldgItV9ENmPA7PiBygW-98" parent="1">
          <mxGeometry width="50" height="50" relative="1" as="geometry">
            <mxPoint x="785" y="1180" as="sourcePoint" />
            <mxPoint x="705" y="1220" as="targetPoint" />
          </mxGeometry>
        </mxCell>
        <mxCell id="7ldgItV9ENmPA7PiBygW-105" value="" style="endArrow=classic;html=1;rounded=0;exitX=0.5;exitY=1;exitDx=0;exitDy=0;entryX=0.5;entryY=0;entryDx=0;entryDy=0;" edge="1" source="7ldgItV9ENmPA7PiBygW-95" target="7ldgItV9ENmPA7PiBygW-100" parent="1">
          <mxGeometry width="50" height="50" relative="1" as="geometry">
            <mxPoint x="785" y="1180" as="sourcePoint" />
            <mxPoint x="785" y="1220" as="targetPoint" />
          </mxGeometry>
        </mxCell>
        <mxCell id="7ldgItV9ENmPA7PiBygW-106" value="$$\frac{1}{1}$$" style="ellipse;whiteSpace=wrap;html=1;aspect=fixed;" vertex="1" parent="1">
          <mxGeometry x="800" y="1260" width="50" height="50" as="geometry" />
        </mxCell>
        <mxCell id="7ldgItV9ENmPA7PiBygW-112" style="edgeStyle=orthogonalEdgeStyle;rounded=0;orthogonalLoop=1;jettySize=auto;html=1;entryX=0.5;entryY=0;entryDx=0;entryDy=0;strokeColor=#d95f02;" edge="1" parent="1" source="7ldgItV9ENmPA7PiBygW-107" target="7ldgItV9ENmPA7PiBygW-111">
          <mxGeometry relative="1" as="geometry" />
        </mxCell>
        <mxCell id="7ldgItV9ENmPA7PiBygW-107" value="$$\frac{1}{1}$$" style="ellipse;whiteSpace=wrap;html=1;aspect=fixed;strokeColor=#000000;" vertex="1" parent="1">
          <mxGeometry x="700" y="1260" width="50" height="50" as="geometry" />
        </mxCell>
        <mxCell id="7ldgItV9ENmPA7PiBygW-108" value="" style="endArrow=classic;html=1;rounded=0;exitX=0.5;exitY=1;exitDx=0;exitDy=0;entryX=0.5;entryY=0;entryDx=0;entryDy=0;strokeColor=#000000;" edge="1" source="7ldgItV9ENmPA7PiBygW-98" target="7ldgItV9ENmPA7PiBygW-107" parent="1">
          <mxGeometry width="50" height="50" relative="1" as="geometry">
            <mxPoint x="785" y="1160" as="sourcePoint" />
            <mxPoint x="785" y="1200" as="targetPoint" />
          </mxGeometry>
        </mxCell>
        <mxCell id="7ldgItV9ENmPA7PiBygW-109" value="" style="endArrow=classic;html=1;rounded=0;exitX=0.5;exitY=1;exitDx=0;exitDy=0;entryX=0.5;entryY=0;entryDx=0;entryDy=0;" edge="1" source="7ldgItV9ENmPA7PiBygW-98" target="7ldgItV9ENmPA7PiBygW-106" parent="1">
          <mxGeometry width="50" height="50" relative="1" as="geometry">
            <mxPoint x="785" y="1250" as="sourcePoint" />
            <mxPoint x="725" y="1290" as="targetPoint" />
          </mxGeometry>
        </mxCell>
        <mxCell id="7ldgItV9ENmPA7PiBygW-110" value="&lt;font size=&quot;1&quot; style=&quot;&quot;&gt;&lt;i style=&quot;font-size: 15px;&quot;&gt;&lt;b&gt;II Expansion&lt;/b&gt;&lt;/i&gt;&lt;/font&gt;" style="text;html=1;align=center;verticalAlign=middle;resizable=0;points=[];autosize=1;strokeColor=none;fillColor=none;" vertex="1" parent="1">
          <mxGeometry x="615" y="1000" width="110" height="30" as="geometry" />
        </mxCell>
        <mxCell id="7ldgItV9ENmPA7PiBygW-111" value="$$\frac{0}{0}$$" style="ellipse;whiteSpace=wrap;html=1;aspect=fixed;strokeColor=#d95f02;" vertex="1" parent="1">
          <mxGeometry x="700" y="1330" width="50" height="50" as="geometry" />
        </mxCell>
        <mxCell id="7ldgItV9ENmPA7PiBygW-113" value="$$\frac{v = 4}{n = 7}$$" style="ellipse;whiteSpace=wrap;html=1;aspect=fixed;" vertex="1" parent="1">
          <mxGeometry x="222.5" y="1430" width="60" height="60" as="geometry" />
        </mxCell>
        <mxCell id="7ldgItV9ENmPA7PiBygW-114" value="" style="endArrow=classic;html=1;rounded=0;exitX=0.5;exitY=1;exitDx=0;exitDy=0;entryX=0.5;entryY=0;entryDx=0;entryDy=0;" edge="1" source="7ldgItV9ENmPA7PiBygW-113" target="7ldgItV9ENmPA7PiBygW-116" parent="1">
          <mxGeometry width="50" height="50" relative="1" as="geometry">
            <mxPoint x="422.5" y="1620" as="sourcePoint" />
            <mxPoint x="212.5" y="1530" as="targetPoint" />
          </mxGeometry>
        </mxCell>
        <mxCell id="7ldgItV9ENmPA7PiBygW-115" value="" style="endArrow=classic;html=1;rounded=0;exitX=0.5;exitY=1;exitDx=0;exitDy=0;entryX=0.5;entryY=0;entryDx=0;entryDy=0;strokeColor=#000000;" edge="1" source="7ldgItV9ENmPA7PiBygW-113" target="7ldgItV9ENmPA7PiBygW-117" parent="1">
          <mxGeometry width="50" height="50" relative="1" as="geometry">
            <mxPoint x="292.5" y="1490" as="sourcePoint" />
            <mxPoint x="292.5" y="1530" as="targetPoint" />
          </mxGeometry>
        </mxCell>
        <mxCell id="7ldgItV9ENmPA7PiBygW-116" value="$$\frac{1}{3}$$" style="ellipse;whiteSpace=wrap;html=1;aspect=fixed;" vertex="1" parent="1">
          <mxGeometry x="122.5" y="1510" width="50" height="50" as="geometry" />
        </mxCell>
        <mxCell id="7ldgItV9ENmPA7PiBygW-117" value="$$\frac{3}{4}$$" style="ellipse;whiteSpace=wrap;html=1;aspect=fixed;strokeColor=#000000;" vertex="1" parent="1">
          <mxGeometry x="340" y="1510" width="50" height="50" as="geometry" />
        </mxCell>
        <mxCell id="7ldgItV9ENmPA7PiBygW-118" value="$$\frac{0}{1}$$" style="ellipse;whiteSpace=wrap;html=1;aspect=fixed;" vertex="1" parent="1">
          <mxGeometry x="72.5" y="1580" width="50" height="50" as="geometry" />
        </mxCell>
        <mxCell id="7ldgItV9ENmPA7PiBygW-119" value="$$\frac{1}{1}$$" style="ellipse;whiteSpace=wrap;html=1;aspect=fixed;" vertex="1" parent="1">
          <mxGeometry x="172.5" y="1580" width="50" height="50" as="geometry" />
        </mxCell>
        <mxCell id="7ldgItV9ENmPA7PiBygW-120" value="$$\frac{2}{2}$$" style="ellipse;whiteSpace=wrap;html=1;aspect=fixed;strokeColor=#000000;" vertex="1" parent="1">
          <mxGeometry x="340" y="1580" width="50" height="50" as="geometry" />
        </mxCell>
        <mxCell id="7ldgItV9ENmPA7PiBygW-121" value="$$\frac{1}{1}$$" style="ellipse;whiteSpace=wrap;html=1;aspect=fixed;" vertex="1" parent="1">
          <mxGeometry x="260" y="1580" width="50" height="50" as="geometry" />
        </mxCell>
        <mxCell id="7ldgItV9ENmPA7PiBygW-122" value="$$\frac{0}{1}$$" style="ellipse;whiteSpace=wrap;html=1;aspect=fixed;" vertex="1" parent="1">
          <mxGeometry x="420" y="1580" width="50" height="50" as="geometry" />
        </mxCell>
        <mxCell id="7ldgItV9ENmPA7PiBygW-123" value="" style="endArrow=classic;html=1;rounded=0;exitX=0.5;exitY=1;exitDx=0;exitDy=0;entryX=0.5;entryY=0;entryDx=0;entryDy=0;" edge="1" source="7ldgItV9ENmPA7PiBygW-116" target="7ldgItV9ENmPA7PiBygW-118" parent="1">
          <mxGeometry width="50" height="50" relative="1" as="geometry">
            <mxPoint x="282.5" y="1480" as="sourcePoint" />
            <mxPoint x="157.5" y="1520" as="targetPoint" />
          </mxGeometry>
        </mxCell>
        <mxCell id="7ldgItV9ENmPA7PiBygW-124" value="" style="endArrow=classic;html=1;rounded=0;exitX=0.5;exitY=1;exitDx=0;exitDy=0;entryX=0.5;entryY=0;entryDx=0;entryDy=0;" edge="1" source="7ldgItV9ENmPA7PiBygW-116" target="7ldgItV9ENmPA7PiBygW-119" parent="1">
          <mxGeometry width="50" height="50" relative="1" as="geometry">
            <mxPoint x="157.5" y="1570" as="sourcePoint" />
            <mxPoint x="107.5" y="1610" as="targetPoint" />
          </mxGeometry>
        </mxCell>
        <mxCell id="7ldgItV9ENmPA7PiBygW-125" value="" style="endArrow=classic;html=1;rounded=0;exitX=0.5;exitY=1;exitDx=0;exitDy=0;entryX=0.5;entryY=0;entryDx=0;entryDy=0;" edge="1" source="7ldgItV9ENmPA7PiBygW-117" target="7ldgItV9ENmPA7PiBygW-121" parent="1">
          <mxGeometry width="50" height="50" relative="1" as="geometry">
            <mxPoint x="125" y="1570" as="sourcePoint" />
            <mxPoint x="175" y="1610" as="targetPoint" />
          </mxGeometry>
        </mxCell>
        <mxCell id="7ldgItV9ENmPA7PiBygW-126" value="" style="endArrow=classic;html=1;rounded=0;exitX=0.5;exitY=1;exitDx=0;exitDy=0;entryX=0.5;entryY=0;entryDx=0;entryDy=0;strokeColor=#000000;" edge="1" source="7ldgItV9ENmPA7PiBygW-117" target="7ldgItV9ENmPA7PiBygW-120" parent="1">
          <mxGeometry width="50" height="50" relative="1" as="geometry">
            <mxPoint x="375" y="1570" as="sourcePoint" />
            <mxPoint x="295" y="1610" as="targetPoint" />
          </mxGeometry>
        </mxCell>
        <mxCell id="7ldgItV9ENmPA7PiBygW-127" value="" style="endArrow=classic;html=1;rounded=0;exitX=0.5;exitY=1;exitDx=0;exitDy=0;entryX=0.5;entryY=0;entryDx=0;entryDy=0;" edge="1" source="7ldgItV9ENmPA7PiBygW-117" target="7ldgItV9ENmPA7PiBygW-122" parent="1">
          <mxGeometry width="50" height="50" relative="1" as="geometry">
            <mxPoint x="375" y="1570" as="sourcePoint" />
            <mxPoint x="375" y="1610" as="targetPoint" />
          </mxGeometry>
        </mxCell>
        <mxCell id="7ldgItV9ENmPA7PiBygW-128" value="$$\frac{1}{1}$$" style="ellipse;whiteSpace=wrap;html=1;aspect=fixed;" vertex="1" parent="1">
          <mxGeometry x="390" y="1650" width="50" height="50" as="geometry" />
        </mxCell>
        <mxCell id="7ldgItV9ENmPA7PiBygW-129" style="edgeStyle=orthogonalEdgeStyle;rounded=0;orthogonalLoop=1;jettySize=auto;html=1;entryX=0.5;entryY=0;entryDx=0;entryDy=0;" edge="1" source="7ldgItV9ENmPA7PiBygW-130" target="7ldgItV9ENmPA7PiBygW-134" parent="1">
          <mxGeometry relative="1" as="geometry" />
        </mxCell>
        <mxCell id="7ldgItV9ENmPA7PiBygW-130" value="$$\frac{1}{1}$$" style="ellipse;whiteSpace=wrap;html=1;aspect=fixed;strokeColor=#000000;" vertex="1" parent="1">
          <mxGeometry x="290" y="1650" width="50" height="50" as="geometry" />
        </mxCell>
        <mxCell id="7ldgItV9ENmPA7PiBygW-131" value="" style="endArrow=classic;html=1;rounded=0;exitX=0.5;exitY=1;exitDx=0;exitDy=0;entryX=0.5;entryY=0;entryDx=0;entryDy=0;strokeColor=#000000;" edge="1" source="7ldgItV9ENmPA7PiBygW-120" target="7ldgItV9ENmPA7PiBygW-130" parent="1">
          <mxGeometry width="50" height="50" relative="1" as="geometry">
            <mxPoint x="375" y="1550" as="sourcePoint" />
            <mxPoint x="375" y="1590" as="targetPoint" />
          </mxGeometry>
        </mxCell>
        <mxCell id="7ldgItV9ENmPA7PiBygW-132" value="" style="endArrow=classic;html=1;rounded=0;exitX=0.5;exitY=1;exitDx=0;exitDy=0;entryX=0.5;entryY=0;entryDx=0;entryDy=0;" edge="1" source="7ldgItV9ENmPA7PiBygW-120" target="7ldgItV9ENmPA7PiBygW-128" parent="1">
          <mxGeometry width="50" height="50" relative="1" as="geometry">
            <mxPoint x="375" y="1640" as="sourcePoint" />
            <mxPoint x="315" y="1680" as="targetPoint" />
          </mxGeometry>
        </mxCell>
        <mxCell id="7ldgItV9ENmPA7PiBygW-133" value="&lt;font size=&quot;1&quot; style=&quot;&quot;&gt;&lt;i style=&quot;font-size: 15px;&quot;&gt;&lt;b&gt;III Simulation&lt;/b&gt;&lt;/i&gt;&lt;/font&gt;" style="text;html=1;align=center;verticalAlign=middle;resizable=0;points=[];autosize=1;strokeColor=none;fillColor=none;" vertex="1" parent="1">
          <mxGeometry x="192.5" y="1390" width="120" height="30" as="geometry" />
        </mxCell>
        <mxCell id="7ldgItV9ENmPA7PiBygW-134" value="$$\frac{0}{0}$$" style="ellipse;whiteSpace=wrap;html=1;aspect=fixed;strokeColor=#d95f02;" vertex="1" parent="1">
          <mxGeometry x="290" y="1720" width="50" height="50" as="geometry" />
        </mxCell>
        <mxCell id="7ldgItV9ENmPA7PiBygW-135" value="$$\frac{v = 5}{n = 8}$$" style="ellipse;whiteSpace=wrap;html=1;aspect=fixed;strokeColor=#7570b3;" vertex="1" parent="1">
          <mxGeometry x="642.5" y="1430" width="60" height="60" as="geometry" />
        </mxCell>
        <mxCell id="7ldgItV9ENmPA7PiBygW-136" value="" style="endArrow=classic;html=1;rounded=0;exitX=0.5;exitY=1;exitDx=0;exitDy=0;entryX=0.5;entryY=0;entryDx=0;entryDy=0;" edge="1" source="7ldgItV9ENmPA7PiBygW-135" target="7ldgItV9ENmPA7PiBygW-138" parent="1">
          <mxGeometry width="50" height="50" relative="1" as="geometry">
            <mxPoint x="842.5" y="1620" as="sourcePoint" />
            <mxPoint x="632.5" y="1530" as="targetPoint" />
          </mxGeometry>
        </mxCell>
        <mxCell id="7ldgItV9ENmPA7PiBygW-137" value="" style="endArrow=classic;html=1;rounded=0;exitX=0.5;exitY=0;exitDx=0;exitDy=0;entryX=0.5;entryY=1;entryDx=0;entryDy=0;strokeColor=#7570b3;" edge="1" source="7ldgItV9ENmPA7PiBygW-139" target="7ldgItV9ENmPA7PiBygW-135" parent="1">
          <mxGeometry width="50" height="50" relative="1" as="geometry">
            <mxPoint x="712.5" y="1530" as="sourcePoint" />
            <mxPoint x="712.5" y="1490" as="targetPoint" />
          </mxGeometry>
        </mxCell>
        <mxCell id="7ldgItV9ENmPA7PiBygW-138" value="$$\frac{1}{3}$$" style="ellipse;whiteSpace=wrap;html=1;aspect=fixed;" vertex="1" parent="1">
          <mxGeometry x="540" y="1510" width="50" height="50" as="geometry" />
        </mxCell>
        <mxCell id="7ldgItV9ENmPA7PiBygW-139" value="$$\frac{4}{5}$$" style="ellipse;whiteSpace=wrap;html=1;aspect=fixed;strokeColor=#7570b3;" vertex="1" parent="1">
          <mxGeometry x="750" y="1510" width="50" height="50" as="geometry" />
        </mxCell>
        <mxCell id="7ldgItV9ENmPA7PiBygW-140" value="$$\frac{0}{1}$$" style="ellipse;whiteSpace=wrap;html=1;aspect=fixed;" vertex="1" parent="1">
          <mxGeometry x="490" y="1580" width="50" height="50" as="geometry" />
        </mxCell>
        <mxCell id="7ldgItV9ENmPA7PiBygW-141" value="$$\frac{1}{1}$$" style="ellipse;whiteSpace=wrap;html=1;aspect=fixed;" vertex="1" parent="1">
          <mxGeometry x="590" y="1580" width="50" height="50" as="geometry" />
        </mxCell>
        <mxCell id="7ldgItV9ENmPA7PiBygW-142" value="$$\frac{3}{3}$$" style="ellipse;whiteSpace=wrap;html=1;aspect=fixed;strokeColor=#7570b3;" vertex="1" parent="1">
          <mxGeometry x="750" y="1580" width="50" height="50" as="geometry" />
        </mxCell>
        <mxCell id="7ldgItV9ENmPA7PiBygW-143" value="$$\frac{1}{1}$$" style="ellipse;whiteSpace=wrap;html=1;aspect=fixed;" vertex="1" parent="1">
          <mxGeometry x="670" y="1580" width="50" height="50" as="geometry" />
        </mxCell>
        <mxCell id="7ldgItV9ENmPA7PiBygW-144" value="$$\frac{0}{1}$$" style="ellipse;whiteSpace=wrap;html=1;aspect=fixed;" vertex="1" parent="1">
          <mxGeometry x="830" y="1580" width="50" height="50" as="geometry" />
        </mxCell>
        <mxCell id="7ldgItV9ENmPA7PiBygW-145" value="" style="endArrow=classic;html=1;rounded=0;exitX=0.5;exitY=1;exitDx=0;exitDy=0;entryX=0.5;entryY=0;entryDx=0;entryDy=0;" edge="1" source="7ldgItV9ENmPA7PiBygW-138" target="7ldgItV9ENmPA7PiBygW-140" parent="1">
          <mxGeometry width="50" height="50" relative="1" as="geometry">
            <mxPoint x="700" y="1480" as="sourcePoint" />
            <mxPoint x="575" y="1520" as="targetPoint" />
          </mxGeometry>
        </mxCell>
        <mxCell id="7ldgItV9ENmPA7PiBygW-146" value="" style="endArrow=classic;html=1;rounded=0;exitX=0.5;exitY=1;exitDx=0;exitDy=0;entryX=0.5;entryY=0;entryDx=0;entryDy=0;" edge="1" source="7ldgItV9ENmPA7PiBygW-138" target="7ldgItV9ENmPA7PiBygW-141" parent="1">
          <mxGeometry width="50" height="50" relative="1" as="geometry">
            <mxPoint x="575" y="1570" as="sourcePoint" />
            <mxPoint x="525" y="1610" as="targetPoint" />
          </mxGeometry>
        </mxCell>
        <mxCell id="7ldgItV9ENmPA7PiBygW-147" value="" style="endArrow=classic;html=1;rounded=0;exitX=0.5;exitY=1;exitDx=0;exitDy=0;entryX=0.5;entryY=0;entryDx=0;entryDy=0;" edge="1" source="7ldgItV9ENmPA7PiBygW-139" target="7ldgItV9ENmPA7PiBygW-143" parent="1">
          <mxGeometry width="50" height="50" relative="1" as="geometry">
            <mxPoint x="535" y="1570" as="sourcePoint" />
            <mxPoint x="585" y="1610" as="targetPoint" />
          </mxGeometry>
        </mxCell>
        <mxCell id="7ldgItV9ENmPA7PiBygW-148" value="" style="endArrow=classic;html=1;rounded=0;exitX=0.5;exitY=0;exitDx=0;exitDy=0;entryX=0.5;entryY=1;entryDx=0;entryDy=0;strokeColor=#7570b3;" edge="1" source="7ldgItV9ENmPA7PiBygW-142" target="7ldgItV9ENmPA7PiBygW-139" parent="1">
          <mxGeometry width="50" height="50" relative="1" as="geometry">
            <mxPoint x="705" y="1610" as="sourcePoint" />
            <mxPoint x="785" y="1570" as="targetPoint" />
          </mxGeometry>
        </mxCell>
        <mxCell id="7ldgItV9ENmPA7PiBygW-149" value="" style="endArrow=classic;html=1;rounded=0;exitX=0.5;exitY=1;exitDx=0;exitDy=0;entryX=0.5;entryY=0;entryDx=0;entryDy=0;" edge="1" source="7ldgItV9ENmPA7PiBygW-139" target="7ldgItV9ENmPA7PiBygW-144" parent="1">
          <mxGeometry width="50" height="50" relative="1" as="geometry">
            <mxPoint x="785" y="1570" as="sourcePoint" />
            <mxPoint x="785" y="1610" as="targetPoint" />
          </mxGeometry>
        </mxCell>
        <mxCell id="7ldgItV9ENmPA7PiBygW-150" value="$$\frac{1}{1}$$" style="ellipse;whiteSpace=wrap;html=1;aspect=fixed;" vertex="1" parent="1">
          <mxGeometry x="800" y="1650" width="50" height="50" as="geometry" />
        </mxCell>
        <mxCell id="7ldgItV9ENmPA7PiBygW-151" style="edgeStyle=orthogonalEdgeStyle;rounded=0;orthogonalLoop=1;jettySize=auto;html=1;strokeColor=#7570b3;exitX=0.5;exitY=0;exitDx=0;exitDy=0;" edge="1" source="7ldgItV9ENmPA7PiBygW-156" target="7ldgItV9ENmPA7PiBygW-152" parent="1">
          <mxGeometry relative="1" as="geometry" />
        </mxCell>
        <mxCell id="7ldgItV9ENmPA7PiBygW-152" value="$$\frac{2}{2}$$" style="ellipse;whiteSpace=wrap;html=1;aspect=fixed;strokeColor=#7570b3;" vertex="1" parent="1">
          <mxGeometry x="700" y="1650" width="50" height="50" as="geometry" />
        </mxCell>
        <mxCell id="7ldgItV9ENmPA7PiBygW-153" value="" style="endArrow=classic;html=1;rounded=0;exitX=0.5;exitY=0;exitDx=0;exitDy=0;entryX=0.5;entryY=1;entryDx=0;entryDy=0;strokeColor=#7570b3;" edge="1" source="7ldgItV9ENmPA7PiBygW-152" target="7ldgItV9ENmPA7PiBygW-142" parent="1">
          <mxGeometry width="50" height="50" relative="1" as="geometry">
            <mxPoint x="785" y="1590" as="sourcePoint" />
            <mxPoint x="785" y="1550" as="targetPoint" />
          </mxGeometry>
        </mxCell>
        <mxCell id="7ldgItV9ENmPA7PiBygW-154" value="" style="endArrow=classic;html=1;rounded=0;exitX=0.5;exitY=1;exitDx=0;exitDy=0;entryX=0.5;entryY=0;entryDx=0;entryDy=0;" edge="1" source="7ldgItV9ENmPA7PiBygW-142" target="7ldgItV9ENmPA7PiBygW-150" parent="1">
          <mxGeometry width="50" height="50" relative="1" as="geometry">
            <mxPoint x="785" y="1640" as="sourcePoint" />
            <mxPoint x="725" y="1680" as="targetPoint" />
          </mxGeometry>
        </mxCell>
        <mxCell id="7ldgItV9ENmPA7PiBygW-155" value="&lt;font size=&quot;1&quot; style=&quot;&quot;&gt;&lt;i style=&quot;font-size: 15px;&quot;&gt;&lt;b&gt;IV Backpropagation&lt;/b&gt;&lt;/i&gt;&lt;/font&gt;" style="text;html=1;align=center;verticalAlign=middle;resizable=0;points=[];autosize=1;strokeColor=none;fillColor=none;" vertex="1" parent="1">
          <mxGeometry x="582.5" y="1390" width="160" height="30" as="geometry" />
        </mxCell>
        <mxCell id="7ldgItV9ENmPA7PiBygW-156" value="$$\frac{1}{1}$$" style="ellipse;whiteSpace=wrap;html=1;aspect=fixed;strokeColor=#7570b3;" vertex="1" parent="1">
          <mxGeometry x="700" y="1720" width="50" height="50" as="geometry" />
        </mxCell>
        <mxCell id="7ldgItV9ENmPA7PiBygW-157" value="" style="curved=1;endArrow=classic;html=1;rounded=0;exitX=0.5;exitY=1;exitDx=0;exitDy=0;strokeColor=#d95f02;" edge="1" parent="1" source="7ldgItV9ENmPA7PiBygW-134">
          <mxGeometry width="50" height="50" relative="1" as="geometry">
            <mxPoint x="330" y="1820" as="sourcePoint" />
            <mxPoint x="315" y="1830" as="targetPoint" />
            <Array as="points">
              <mxPoint x="300" y="1820" />
              <mxPoint x="330" y="1770" />
            </Array>
          </mxGeometry>
        </mxCell>
        <mxCell id="7ldgItV9ENmPA7PiBygW-158" value="rollout" style="text;html=1;align=center;verticalAlign=middle;resizable=0;points=[];autosize=1;strokeColor=none;fillColor=none;" vertex="1" parent="1">
          <mxGeometry x="320" y="1785" width="60" height="30" as="geometry" />
        </mxCell>
      </root>
    </mxGraphModel>
  </diagram>
</mxfile>
